<svg xmlns="http://www.w3.org/2000/svg" xmlns:xlink="http://www.w3.org/1999/xlink" width="128" zoomAndPan="magnify" viewBox="0 0 96 95.999999" height="128" preserveAspectRatio="xMidYMid meet" version="1.0"><defs><g/><clipPath id="45597506d1"><path d="M 9.226562 9.21875 L 87.691406 9.21875 L 87.691406 86.78125 L 9.226562 86.78125 Z M 9.226562 9.21875 " clip-rule="nonzero"/></clipPath><clipPath id="7f90dff85c"><path d="M 18.976562 9.21875 L 77.789062 9.21875 C 83.171875 9.21875 87.539062 13.585938 87.539062 18.96875 L 87.539062 77.03125 C 87.539062 82.414062 83.171875 86.78125 77.789062 86.78125 L 18.976562 86.78125 C 13.589844 86.78125 9.226562 82.414062 9.226562 77.03125 L 9.226562 18.96875 C 9.226562 13.585938 13.589844 9.21875 18.976562 9.21875 Z M 18.976562 9.21875 " clip-rule="nonzero"/></clipPath><clipPath id="beb97fd04f"><path d="M 0.226562 0.21875 L 78.390625 0.21875 L 78.390625 77.78125 L 0.226562 77.78125 Z M 0.226562 0.21875 " clip-rule="nonzero"/></clipPath><clipPath id="1c1ecfaaea"><path d="M 9.976562 0.21875 L 68.789062 0.21875 C 74.171875 0.21875 78.539062 4.585938 78.539062 9.96875 L 78.539062 68.03125 C 78.539062 73.414062 74.171875 77.78125 68.789062 77.78125 L 9.976562 77.78125 C 4.589844 77.78125 0.226562 73.414062 0.226562 68.03125 L 0.226562 9.96875 C 0.226562 4.585938 4.589844 0.21875 9.976562 0.21875 Z M 9.976562 0.21875 " clip-rule="nonzero"/></clipPath><linearGradient x1="0.00232082" gradientTransform="matrix(0.302964, 0, 0, 0.302964, 0.224563, 0.220555)" y1="128" x2="258.002312" gradientUnits="userSpaceOnUse" y2="128" id="f0de239f74"><stop stop-opacity="1" stop-color="rgb(4.309082%, 39.219666%, 50.19989%)" offset="0"/><stop stop-opacity="1" stop-color="rgb(4.467773%, 39.337158%, 50.296021%)" offset="0.0078125"/><stop stop-opacity="1" stop-color="rgb(4.786682%, 39.572144%, 50.488281%)" offset="0.015625"/><stop stop-opacity="1" stop-color="rgb(5.104065%, 39.807129%, 50.680542%)" offset="0.0234375"/><stop stop-opacity="1" stop-color="rgb(5.422974%, 40.04364%, 50.872803%)" offset="0.03125"/><stop stop-opacity="1" stop-color="rgb(5.740356%, 40.278625%, 51.066589%)" offset="0.0390625"/><stop stop-opacity="1" stop-color="rgb(6.059265%, 40.513611%, 51.25885%)" offset="0.046875"/><stop stop-opacity="1" stop-color="rgb(6.376648%, 40.750122%, 51.451111%)" offset="0.0546875"/><stop stop-opacity="1" stop-color="rgb(6.694031%, 40.985107%, 51.643372%)" offset="0.0625"/><stop stop-opacity="1" stop-color="rgb(7.012939%, 41.220093%, 51.837158%)" offset="0.0703125"/><stop stop-opacity="1" stop-color="rgb(7.330322%, 41.455078%, 52.029419%)" offset="0.078125"/><stop stop-opacity="1" stop-color="rgb(7.649231%, 41.691589%, 52.22168%)" offset="0.0859375"/><stop stop-opacity="1" stop-color="rgb(7.966614%, 41.926575%, 52.41394%)" offset="0.09375"/><stop stop-opacity="1" stop-color="rgb(8.285522%, 42.16156%, 52.606201%)" offset="0.101562"/><stop stop-opacity="1" stop-color="rgb(8.602905%, 42.398071%, 52.799988%)" offset="0.109375"/><stop stop-opacity="1" stop-color="rgb(8.921814%, 42.633057%, 52.992249%)" offset="0.117188"/><stop stop-opacity="1" stop-color="rgb(9.239197%, 42.868042%, 53.184509%)" offset="0.125"/><stop stop-opacity="1" stop-color="rgb(9.558105%, 43.103027%, 53.37677%)" offset="0.132812"/><stop stop-opacity="1" stop-color="rgb(9.875488%, 43.339539%, 53.570557%)" offset="0.140625"/><stop stop-opacity="1" stop-color="rgb(10.192871%, 43.574524%, 53.762817%)" offset="0.148438"/><stop stop-opacity="1" stop-color="rgb(10.51178%, 43.809509%, 53.955078%)" offset="0.15625"/><stop stop-opacity="1" stop-color="rgb(10.829163%, 44.046021%, 54.147339%)" offset="0.164062"/><stop stop-opacity="1" stop-color="rgb(11.148071%, 44.281006%, 54.3396%)" offset="0.171875"/><stop stop-opacity="1" stop-color="rgb(11.465454%, 44.515991%, 54.533386%)" offset="0.179688"/><stop stop-opacity="1" stop-color="rgb(11.784363%, 44.750977%, 54.725647%)" offset="0.1875"/><stop stop-opacity="1" stop-color="rgb(12.101746%, 44.987488%, 54.917908%)" offset="0.195312"/><stop stop-opacity="1" stop-color="rgb(12.420654%, 45.222473%, 55.110168%)" offset="0.203125"/><stop stop-opacity="1" stop-color="rgb(12.738037%, 45.457458%, 55.303955%)" offset="0.210938"/><stop stop-opacity="1" stop-color="rgb(13.05542%, 45.692444%, 55.496216%)" offset="0.21875"/><stop stop-opacity="1" stop-color="rgb(13.374329%, 45.928955%, 55.688477%)" offset="0.226562"/><stop stop-opacity="1" stop-color="rgb(13.691711%, 46.16394%, 55.880737%)" offset="0.234375"/><stop stop-opacity="1" stop-color="rgb(14.01062%, 46.398926%, 56.072998%)" offset="0.242188"/><stop stop-opacity="1" stop-color="rgb(14.328003%, 46.635437%, 56.266785%)" offset="0.25"/><stop stop-opacity="1" stop-color="rgb(14.646912%, 46.870422%, 56.459045%)" offset="0.257812"/><stop stop-opacity="1" stop-color="rgb(14.964294%, 47.105408%, 56.651306%)" offset="0.265625"/><stop stop-opacity="1" stop-color="rgb(15.283203%, 47.340393%, 56.843567%)" offset="0.273437"/><stop stop-opacity="1" stop-color="rgb(15.600586%, 47.576904%, 57.037354%)" offset="0.28125"/><stop stop-opacity="1" stop-color="rgb(15.919495%, 47.81189%, 57.229614%)" offset="0.289062"/><stop stop-opacity="1" stop-color="rgb(16.236877%, 48.046875%, 57.421875%)" offset="0.296875"/><stop stop-opacity="1" stop-color="rgb(16.55426%, 48.283386%, 57.614136%)" offset="0.304687"/><stop stop-opacity="1" stop-color="rgb(16.873169%, 48.518372%, 57.806396%)" offset="0.3125"/><stop stop-opacity="1" stop-color="rgb(17.190552%, 48.753357%, 58.000183%)" offset="0.320312"/><stop stop-opacity="1" stop-color="rgb(17.50946%, 48.988342%, 58.192444%)" offset="0.328125"/><stop stop-opacity="1" stop-color="rgb(17.826843%, 49.224854%, 58.384705%)" offset="0.335938"/><stop stop-opacity="1" stop-color="rgb(18.145752%, 49.459839%, 58.576965%)" offset="0.34375"/><stop stop-opacity="1" stop-color="rgb(18.463135%, 49.694824%, 58.770752%)" offset="0.351562"/><stop stop-opacity="1" stop-color="rgb(18.782043%, 49.931335%, 58.963013%)" offset="0.359375"/><stop stop-opacity="1" stop-color="rgb(19.099426%, 50.166321%, 59.155273%)" offset="0.367187"/><stop stop-opacity="1" stop-color="rgb(19.416809%, 50.401306%, 59.347534%)" offset="0.375"/><stop stop-opacity="1" stop-color="rgb(19.735718%, 50.636292%, 59.541321%)" offset="0.382812"/><stop stop-opacity="1" stop-color="rgb(20.053101%, 50.872803%, 59.733582%)" offset="0.390625"/><stop stop-opacity="1" stop-color="rgb(20.372009%, 51.107788%, 59.925842%)" offset="0.398437"/><stop stop-opacity="1" stop-color="rgb(20.689392%, 51.342773%, 60.118103%)" offset="0.40625"/><stop stop-opacity="1" stop-color="rgb(21.008301%, 51.577759%, 60.310364%)" offset="0.414062"/><stop stop-opacity="1" stop-color="rgb(21.325684%, 51.81427%, 60.50415%)" offset="0.421875"/><stop stop-opacity="1" stop-color="rgb(21.644592%, 52.049255%, 60.696411%)" offset="0.429687"/><stop stop-opacity="1" stop-color="rgb(21.961975%, 52.284241%, 60.888672%)" offset="0.4375"/><stop stop-opacity="1" stop-color="rgb(22.280884%, 52.520752%, 61.080933%)" offset="0.445312"/><stop stop-opacity="1" stop-color="rgb(22.598267%, 52.755737%, 61.274719%)" offset="0.453125"/><stop stop-opacity="1" stop-color="rgb(22.915649%, 52.990723%, 61.46698%)" offset="0.460937"/><stop stop-opacity="1" stop-color="rgb(23.234558%, 53.225708%, 61.659241%)" offset="0.46875"/><stop stop-opacity="1" stop-color="rgb(23.551941%, 53.462219%, 61.851501%)" offset="0.476562"/><stop stop-opacity="1" stop-color="rgb(23.87085%, 53.697205%, 62.043762%)" offset="0.484375"/><stop stop-opacity="1" stop-color="rgb(24.188232%, 53.93219%, 62.237549%)" offset="0.492187"/><stop stop-opacity="1" stop-color="rgb(24.507141%, 54.168701%, 62.42981%)" offset="0.5"/><stop stop-opacity="1" stop-color="rgb(24.824524%, 54.403687%, 62.62207%)" offset="0.507812"/><stop stop-opacity="1" stop-color="rgb(25.143433%, 54.638672%, 62.814331%)" offset="0.515625"/><stop stop-opacity="1" stop-color="rgb(25.460815%, 54.873657%, 63.008118%)" offset="0.523437"/><stop stop-opacity="1" stop-color="rgb(25.778198%, 55.110168%, 63.200378%)" offset="0.53125"/><stop stop-opacity="1" stop-color="rgb(26.097107%, 55.345154%, 63.392639%)" offset="0.539062"/><stop stop-opacity="1" stop-color="rgb(26.41449%, 55.580139%, 63.5849%)" offset="0.546875"/><stop stop-opacity="1" stop-color="rgb(26.733398%, 55.81665%, 63.777161%)" offset="0.554687"/><stop stop-opacity="1" stop-color="rgb(27.050781%, 56.051636%, 63.970947%)" offset="0.5625"/><stop stop-opacity="1" stop-color="rgb(27.36969%, 56.286621%, 64.163208%)" offset="0.570312"/><stop stop-opacity="1" stop-color="rgb(27.687073%, 56.521606%, 64.355469%)" offset="0.578125"/><stop stop-opacity="1" stop-color="rgb(28.005981%, 56.758118%, 64.547729%)" offset="0.585938"/><stop stop-opacity="1" stop-color="rgb(28.323364%, 56.993103%, 64.741516%)" offset="0.59375"/><stop stop-opacity="1" stop-color="rgb(28.642273%, 57.228088%, 64.933777%)" offset="0.601563"/><stop stop-opacity="1" stop-color="rgb(28.959656%, 57.463074%, 65.126038%)" offset="0.609375"/><stop stop-opacity="1" stop-color="rgb(29.277039%, 57.699585%, 65.318298%)" offset="0.617188"/><stop stop-opacity="1" stop-color="rgb(29.595947%, 57.93457%, 65.510559%)" offset="0.625"/><stop stop-opacity="1" stop-color="rgb(29.91333%, 58.169556%, 65.704346%)" offset="0.632813"/><stop stop-opacity="1" stop-color="rgb(30.232239%, 58.406067%, 65.896606%)" offset="0.640625"/><stop stop-opacity="1" stop-color="rgb(30.549622%, 58.641052%, 66.088867%)" offset="0.648438"/><stop stop-opacity="1" stop-color="rgb(30.86853%, 58.876038%, 66.281128%)" offset="0.65625"/><stop stop-opacity="1" stop-color="rgb(31.185913%, 59.111023%, 66.474915%)" offset="0.664063"/><stop stop-opacity="1" stop-color="rgb(31.504822%, 59.347534%, 66.667175%)" offset="0.671875"/><stop stop-opacity="1" stop-color="rgb(31.822205%, 59.58252%, 66.859436%)" offset="0.679688"/><stop stop-opacity="1" stop-color="rgb(32.139587%, 59.817505%, 67.051697%)" offset="0.6875"/><stop stop-opacity="1" stop-color="rgb(32.458496%, 60.054016%, 67.243958%)" offset="0.695313"/><stop stop-opacity="1" stop-color="rgb(32.775879%, 60.289001%, 67.437744%)" offset="0.703125"/><stop stop-opacity="1" stop-color="rgb(33.094788%, 60.523987%, 67.630005%)" offset="0.710938"/><stop stop-opacity="1" stop-color="rgb(33.41217%, 60.758972%, 67.822266%)" offset="0.71875"/><stop stop-opacity="1" stop-color="rgb(33.731079%, 60.995483%, 68.014526%)" offset="0.726563"/><stop stop-opacity="1" stop-color="rgb(34.048462%, 61.230469%, 68.208313%)" offset="0.734375"/><stop stop-opacity="1" stop-color="rgb(34.367371%, 61.465454%, 68.400574%)" offset="0.742188"/><stop stop-opacity="1" stop-color="rgb(34.684753%, 61.701965%, 68.592834%)" offset="0.75"/><stop stop-opacity="1" stop-color="rgb(35.003662%, 61.936951%, 68.785095%)" offset="0.757812"/><stop stop-opacity="1" stop-color="rgb(35.321045%, 62.171936%, 68.978882%)" offset="0.765625"/><stop stop-opacity="1" stop-color="rgb(35.638428%, 62.406921%, 69.171143%)" offset="0.773438"/><stop stop-opacity="1" stop-color="rgb(35.957336%, 62.643433%, 69.363403%)" offset="0.78125"/><stop stop-opacity="1" stop-color="rgb(36.274719%, 62.878418%, 69.555664%)" offset="0.789062"/><stop stop-opacity="1" stop-color="rgb(36.593628%, 63.113403%, 69.747925%)" offset="0.796875"/><stop stop-opacity="1" stop-color="rgb(36.911011%, 63.348389%, 69.941711%)" offset="0.804687"/><stop stop-opacity="1" stop-color="rgb(37.229919%, 63.5849%, 70.133972%)" offset="0.8125"/><stop stop-opacity="1" stop-color="rgb(37.547302%, 63.819885%, 70.326233%)" offset="0.820312"/><stop stop-opacity="1" stop-color="rgb(37.866211%, 64.054871%, 70.518494%)" offset="0.828125"/><stop stop-opacity="1" stop-color="rgb(38.183594%, 64.291382%, 70.71228%)" offset="0.835937"/><stop stop-opacity="1" stop-color="rgb(38.500977%, 64.526367%, 70.904541%)" offset="0.84375"/><stop stop-opacity="1" stop-color="rgb(38.819885%, 64.761353%, 71.096802%)" offset="0.851562"/><stop stop-opacity="1" stop-color="rgb(39.137268%, 64.996338%, 71.289062%)" offset="0.859375"/><stop stop-opacity="1" stop-color="rgb(39.456177%, 65.232849%, 71.481323%)" offset="0.867188"/><stop stop-opacity="1" stop-color="rgb(39.77356%, 65.467834%, 71.67511%)" offset="0.875"/><stop stop-opacity="1" stop-color="rgb(40.092468%, 65.70282%, 71.867371%)" offset="0.882813"/><stop stop-opacity="1" stop-color="rgb(40.409851%, 65.939331%, 72.059631%)" offset="0.890625"/><stop stop-opacity="1" stop-color="rgb(40.72876%, 66.174316%, 72.251892%)" offset="0.898438"/><stop stop-opacity="1" stop-color="rgb(41.046143%, 66.409302%, 72.445679%)" offset="0.90625"/><stop stop-opacity="1" stop-color="rgb(41.365051%, 66.644287%, 72.637939%)" offset="0.914063"/><stop stop-opacity="1" stop-color="rgb(41.682434%, 66.880798%, 72.8302%)" offset="0.921875"/><stop stop-opacity="1" stop-color="rgb(41.999817%, 67.115784%, 73.022461%)" offset="0.929688"/><stop stop-opacity="1" stop-color="rgb(42.318726%, 67.350769%, 73.214722%)" offset="0.9375"/><stop stop-opacity="1" stop-color="rgb(42.636108%, 67.58728%, 73.408508%)" offset="0.945313"/><stop stop-opacity="1" stop-color="rgb(42.955017%, 67.822266%, 73.600769%)" offset="0.953125"/><stop stop-opacity="1" stop-color="rgb(43.2724%, 68.057251%, 73.79303%)" offset="0.960938"/><stop stop-opacity="1" stop-color="rgb(43.591309%, 68.292236%, 73.985291%)" offset="0.96875"/><stop stop-opacity="1" stop-color="rgb(43.908691%, 68.528748%, 74.179077%)" offset="0.976562"/><stop stop-opacity="1" stop-color="rgb(44.2276%, 68.763733%, 74.371338%)" offset="0.984375"/><stop stop-opacity="1" stop-color="rgb(44.544983%, 68.998718%, 74.563599%)" offset="0.992188"/><stop stop-opacity="1" stop-color="rgb(44.862366%, 69.235229%, 74.755859%)" offset="1"/></linearGradient><clipPath id="8ee41ce209"><rect x="0" width="79" y="0" height="78"/></clipPath><clipPath id="f97ef051ec"><path d="M 1 2 L 7 2 L 7 9.960938 L 1 9.960938 Z M 1 2 " clip-rule="nonzero"/></clipPath><clipPath id="1d4a1c0cd3"><rect x="0" width="21" y="0" height="10"/></clipPath></defs><g clip-path="url(#45597506d1)"><g clip-path="url(#7f90dff85c)"><g transform="matrix(1, 0, 0, 1, 9, 9)"><g clip-path="url(#8ee41ce209)"><g clip-path="url(#beb97fd04f)"><g clip-path="url(#1c1ecfaaea)"><path fill="url(#f0de239f74)" d="M 0.226562 0.21875 L 0.226562 77.78125 L 78.390625 77.78125 L 78.390625 0.21875 Z M 0.226562 0.21875 " fill-rule="nonzero"/></g></g></g></g></g></g><path fill="#ffffff" d="M 50.566406 46.347656 L 50.566406 39.988281 L 47.605469 39.988281 L 47.605469 46.347656 L 46.050781 46.347656 L 46.050781 39.988281 L 44.90625 39.988281 L 44.90625 38.726562 L 46.050781 38.726562 L 46.050781 37.390625 C 46.050781 35.777344 47.027344 34.828125 48.570312 34.828125 C 48.859375 34.828125 49.148438 34.871094 49.421875 34.964844 L 49.148438 36.316406 C 48.964844 36.253906 48.796875 36.238281 48.628906 36.238281 C 48.003906 36.238281 47.605469 36.65625 47.605469 37.421875 L 47.605469 38.726562 L 52.121094 38.726562 L 52.121094 46.347656 Z M 50.460938 37.515625 L 50.460938 35.75 L 52.230469 35.75 L 52.230469 37.515625 Z M 55.800781 35.59375 L 55.800781 41.292969 L 58.378906 38.726562 L 60.285156 38.726562 L 57.617188 41.371094 L 60.742188 46.347656 L 58.925781 46.347656 L 56.5 42.476562 L 55.800781 43.183594 L 55.800781 46.347656 L 54.242188 46.347656 L 54.242188 35.59375 Z M 68.371094 42.875 L 62.375 42.875 C 62.4375 44.226562 63.335938 45.195312 64.679688 45.195312 C 65.914062 45.195312 66.496094 44.519531 66.9375 43.613281 L 68.140625 44.335938 C 67.441406 45.792969 66.339844 46.5625 64.632812 46.5625 C 62.558594 46.5625 60.820312 44.917969 60.820312 42.539062 C 60.820312 40.15625 62.558594 38.511719 64.710938 38.511719 C 66.90625 38.511719 68.371094 40.09375 68.371094 42.320312 Z M 64.679688 39.773438 C 63.550781 39.773438 62.664062 40.570312 62.375 41.675781 L 66.890625 41.675781 C 66.769531 40.433594 65.730469 39.773438 64.679688 39.773438 Z M 76.835938 41.171875 L 76.835938 46.347656 L 75.28125 46.347656 L 75.28125 41.632812 C 75.28125 40.585938 74.671875 39.957031 73.601562 39.957031 C 72.519531 39.957031 71.621094 40.878906 71.621094 42.320312 L 71.621094 46.347656 L 70.0625 46.347656 L 70.0625 38.726562 L 71.621094 38.726562 L 71.621094 40.003906 C 72.152344 39.113281 73.101562 38.511719 74.199219 38.511719 C 75.679688 38.511719 76.835938 39.449219 76.835938 41.171875 Z M 76.835938 41.171875 " fill-opacity="1" fill-rule="evenodd"/><path fill="#bdbdbd" d="M 27.164062 39.21875 C 26.636719 39.21875 26.128906 39.007812 25.753906 38.640625 C 25.378906 38.269531 25.171875 37.765625 25.171875 37.242188 L 25.171875 36.476562 C 25.167969 32.183594 28.679688 28.695312 33.023438 28.683594 C 34.589844 28.679688 36.121094 29.144531 37.417969 30.015625 C 38.3125 30.628906 38.542969 31.84375 37.933594 32.738281 C 37.324219 33.632812 36.101562 33.878906 35.1875 33.292969 C 34.550781 32.863281 33.796875 32.636719 33.023438 32.636719 C 30.886719 32.644531 29.15625 34.363281 29.160156 36.476562 L 29.160156 37.246094 C 29.160156 37.769531 28.949219 38.269531 28.578125 38.640625 C 28.203125 39.011719 27.695312 39.222656 27.164062 39.222656 " fill-opacity="1" fill-rule="evenodd"/><path fill="#ffffff" d="M 33.796875 41.074219 L 29.15625 41.074219 L 29.15625 36.476562 C 29.183594 35.757812 28.808594 35.082031 28.179688 34.714844 C 27.554688 34.347656 26.773438 34.347656 26.148438 34.714844 C 25.519531 35.082031 25.148438 35.757812 25.171875 36.476562 L 25.171875 41.078125 L 20.53125 41.078125 C 19.425781 41.078125 18.53125 41.964844 18.53125 43.054688 C 18.53125 44.148438 19.425781 45.03125 20.53125 45.03125 L 25.171875 45.03125 L 25.171875 49.632812 C 25.15625 50.347656 25.53125 51.015625 26.15625 51.378906 C 26.777344 51.742188 27.550781 51.742188 28.175781 51.378906 C 28.800781 51.015625 29.175781 50.347656 29.160156 49.632812 L 29.160156 45.03125 L 33.796875 45.03125 C 34.902344 45.03125 35.796875 44.144531 35.796875 43.050781 C 35.796875 41.960938 34.902344 41.074219 33.796875 41.074219 " fill-opacity="1" fill-rule="evenodd"/><g transform="matrix(1, 0, 0, 1, 16, 69)"><g clip-path="url(#1d4a1c0cd3)"><g clip-path="url(#f97ef051ec)"><g fill="#ffffff" fill-opacity="1"><g transform="translate(0.704077, 7.833969)"><g><path d="M 3.828125 -4.984375 C 4.359375 -4.984375 4.785156 -4.863281 5.109375 -4.625 C 5.429688 -4.394531 5.664062 -4.082031 5.8125 -3.6875 C 5.96875 -3.289062 6.046875 -2.863281 6.046875 -2.40625 C 6.046875 -1.957031 5.96875 -1.535156 5.8125 -1.140625 C 5.664062 -0.753906 5.429688 -0.441406 5.109375 -0.203125 C 4.785156 0.0351562 4.359375 0.15625 3.828125 0.15625 C 3.421875 0.15625 3.078125 0.0820312 2.796875 -0.0625 C 2.523438 -0.21875 2.304688 -0.421875 2.140625 -0.671875 L 2.140625 1.9375 L 0.46875 1.9375 L 0.46875 -4.828125 L 2.140625 -4.828125 L 2.140625 -4.171875 C 2.304688 -4.429688 2.523438 -4.628906 2.796875 -4.765625 C 3.078125 -4.910156 3.421875 -4.984375 3.828125 -4.984375 Z M 3.28125 -1.140625 C 3.6875 -1.140625 3.972656 -1.238281 4.140625 -1.4375 C 4.304688 -1.632812 4.390625 -1.957031 4.390625 -2.40625 C 4.390625 -2.863281 4.304688 -3.191406 4.140625 -3.390625 C 3.972656 -3.585938 3.6875 -3.6875 3.28125 -3.6875 C 2.851562 -3.6875 2.554688 -3.582031 2.390625 -3.375 C 2.222656 -3.164062 2.140625 -2.84375 2.140625 -2.40625 C 2.140625 -1.976562 2.222656 -1.660156 2.390625 -1.453125 C 2.554688 -1.242188 2.851562 -1.140625 3.28125 -1.140625 Z M 3.28125 -1.140625 "/></g></g></g></g><g fill="#ffffff" fill-opacity="1"><g transform="translate(6.61729, 7.833969)"><g><path d="M 3.015625 -0.953125 C 3.265625 -0.953125 3.46875 -1 3.625 -1.09375 C 3.78125 -1.195312 3.890625 -1.316406 3.953125 -1.453125 L 5.5625 -1.453125 C 5.507812 -1.179688 5.390625 -0.921875 5.203125 -0.671875 C 5.023438 -0.429688 4.753906 -0.234375 4.390625 -0.078125 C 4.035156 0.078125 3.566406 0.15625 2.984375 0.15625 C 2.492188 0.15625 2.078125 0.0859375 1.734375 -0.046875 C 1.390625 -0.191406 1.113281 -0.382812 0.90625 -0.625 C 0.695312 -0.875 0.546875 -1.15625 0.453125 -1.46875 C 0.359375 -1.78125 0.3125 -2.097656 0.3125 -2.421875 C 0.3125 -2.890625 0.40625 -3.316406 0.59375 -3.703125 C 0.78125 -4.085938 1.070312 -4.394531 1.46875 -4.625 C 1.863281 -4.863281 2.367188 -4.984375 2.984375 -4.984375 C 3.484375 -4.984375 3.894531 -4.910156 4.21875 -4.765625 C 4.550781 -4.628906 4.816406 -4.4375 5.015625 -4.1875 C 5.222656 -3.945312 5.367188 -3.671875 5.453125 -3.359375 C 5.535156 -3.046875 5.578125 -2.722656 5.578125 -2.390625 C 5.578125 -2.234375 5.566406 -2.097656 5.546875 -1.984375 L 1.9375 -1.984375 C 1.988281 -1.597656 2.101562 -1.328125 2.28125 -1.171875 C 2.46875 -1.023438 2.710938 -0.953125 3.015625 -0.953125 Z M 3 -3.890625 C 2.707031 -3.890625 2.472656 -3.816406 2.296875 -3.671875 C 2.117188 -3.535156 2.003906 -3.296875 1.953125 -2.953125 L 4 -2.953125 C 3.976562 -3.253906 3.882812 -3.484375 3.71875 -3.640625 C 3.5625 -3.804688 3.320312 -3.890625 3 -3.890625 Z M 3 -3.890625 "/></g></g></g><g fill="#ffffff" fill-opacity="1"><g transform="translate(12.066704, 7.833969)"><g><path d="M 4.09375 0 L 2.84375 -1.734375 L 2.15625 -1.0625 L 2.15625 0 L 0.5 0 L 0.5 -6.765625 L 2.15625 -6.765625 L 2.15625 -2.65625 C 2.238281 -2.78125 2.320312 -2.894531 2.40625 -3 C 2.5 -3.113281 2.585938 -3.222656 2.671875 -3.328125 L 4 -4.828125 L 5.953125 -4.828125 L 5.953125 -4.796875 L 3.890625 -2.765625 L 6.046875 0 Z M 4.09375 0 "/></g></g></g><g fill="#ffffff" fill-opacity="1"><g transform="translate(17.670717, 7.833969)"><g><path d="M 0.46875 -5.421875 L 0.46875 -6.421875 L 2.1875 -6.421875 L 2.1875 -5.421875 Z M 0.5 0 L 0.5 -4.828125 L 2.15625 -4.828125 L 2.15625 0 Z M 0.5 0 "/></g></g></g></g></g><path fill="#46cc6b" d="M 89.792969 70.320312 C 90.40625 70.933594 90.957031 71.605469 91.441406 72.328125 C 91.925781 73.050781 92.332031 73.816406 92.667969 74.621094 C 93 75.425781 93.25 76.253906 93.421875 77.105469 C 93.589844 77.960938 93.675781 78.824219 93.675781 79.695312 C 93.675781 80.5625 93.589844 81.425781 93.421875 82.28125 C 93.25 83.132812 93 83.964844 92.667969 84.765625 C 92.332031 85.570312 91.925781 86.335938 91.441406 87.058594 C 90.957031 87.785156 90.40625 88.453125 89.792969 89.070312 C 89.175781 89.683594 88.507812 90.234375 87.785156 90.71875 C 87.058594 91.203125 86.296875 91.609375 85.492188 91.941406 C 84.6875 92.277344 83.859375 92.527344 83.003906 92.699219 C 82.148438 92.867188 81.289062 92.953125 80.417969 92.953125 C 79.546875 92.953125 78.683594 92.867188 77.832031 92.699219 C 76.976562 92.527344 76.148438 92.277344 75.34375 91.941406 C 74.539062 91.609375 73.773438 91.203125 73.050781 90.71875 C 72.328125 90.234375 71.65625 89.683594 71.042969 89.070312 C 70.425781 88.453125 69.878906 87.785156 69.394531 87.058594 C 68.910156 86.335938 68.5 85.570312 68.167969 84.769531 C 67.835938 83.964844 67.582031 83.132812 67.414062 82.28125 C 67.242188 81.425781 67.160156 80.566406 67.160156 79.695312 C 67.160156 78.824219 67.242188 77.960938 67.414062 77.109375 C 67.582031 76.253906 67.835938 75.425781 68.167969 74.621094 C 68.5 73.816406 68.910156 73.050781 69.394531 72.328125 C 69.875 71.605469 70.425781 70.933594 71.042969 70.320312 C 71.65625 69.703125 72.328125 69.152344 73.050781 68.671875 C 73.773438 68.1875 74.539062 67.777344 75.34375 67.445312 C 76.148438 67.113281 76.976562 66.859375 77.832031 66.691406 C 78.683594 66.519531 79.546875 66.433594 80.417969 66.433594 C 81.289062 66.433594 82.148438 66.519531 83.003906 66.691406 C 83.855469 66.859375 84.6875 67.113281 85.492188 67.445312 C 86.296875 67.777344 87.058594 68.1875 87.78125 68.667969 C 88.507812 69.152344 89.175781 69.703125 89.792969 70.320312 Z M 89.792969 70.320312 " fill-opacity="1" fill-rule="nonzero"/><path fill="#179c5f" d="M 93.667969 80.125 C 93.445312 87.132812 87.785156 92.765625 80.765625 92.949219 L 73.59375 85.773438 L 73.59375 81.015625 L 77.867188 81.015625 L 74.0625 77.207031 C 75.085938 74.59375 77.609375 72.867188 80.417969 72.867188 C 82.382812 72.867188 84.238281 73.710938 85.535156 75.183594 L 85.535156 73.699219 L 87.242188 73.699219 Z M 93.667969 80.125 " fill-opacity="1" fill-rule="evenodd"/><path fill="#ffffff" d="M 76.289062 82.722656 C 77.253906 84.039062 78.777344 84.8125 80.417969 84.8125 C 82.527344 84.8125 84.417969 83.523438 85.1875 81.558594 L 86.773438 82.179688 C 85.75 84.792969 83.226562 86.519531 80.417969 86.519531 C 78.449219 86.519531 76.59375 85.675781 75.296875 84.207031 L 75.296875 85.773438 L 73.59375 85.773438 L 73.59375 81.015625 L 77.972656 81.015625 L 77.972656 82.722656 Z M 87.242188 73.699219 L 87.242188 78.457031 L 82.863281 78.457031 L 82.863281 76.75 L 84.609375 76.75 C 83.644531 75.382812 82.09375 74.574219 80.417969 74.574219 C 78.308594 74.574219 76.417969 75.863281 75.648438 77.828125 L 74.0625 77.207031 C 75.085938 74.59375 77.609375 72.867188 80.417969 72.867188 C 82.382812 72.867188 84.238281 73.710938 85.535156 75.183594 L 85.535156 73.699219 Z M 87.242188 73.699219 " fill-opacity="1" fill-rule="evenodd"/></svg>